<svg width="24" height="24" viewBox="0 0 24 24" fill="none" xmlns="http://www.w3.org/2000/svg">
<path d="M8.61719 17.7826C9.31153 18.6675 9.94347 19.5996 10.5084 20.5721C10.9908 21.4868 11.1919 22.107 11.5444 23.2091C11.7606 23.818 11.956 23.9997 12.3761 23.9997C12.8339 23.9997 13.0416 23.6905 13.2021 23.2124C13.5353 22.1716 13.7968 21.3773 14.2093 20.6268C15.0188 19.1778 16.0246 17.8903 17.0129 16.6528C17.2805 16.3025 19.0103 14.2621 19.7891 12.6522C19.7891 12.6522 20.7463 10.8836 20.7463 8.41372C20.7463 6.10335 19.8023 4.50098 19.8023 4.50098L17.0846 5.2288L15.4342 9.57578L15.0258 10.1752L14.9442 10.2838L14.8356 10.4197L14.645 10.6368L14.3726 10.9092L12.9029 12.1065L9.22844 14.2281L8.61719 17.7826Z" fill="#34A853"/>
<path d="M4.82227 12.3573C5.71906 14.4057 7.4484 16.2064 8.61844 17.7866L14.8331 10.425C14.8331 10.425 13.9575 11.5701 12.3693 11.5701C10.6003 11.5701 9.17114 10.1574 9.17114 8.37611C9.17114 7.15459 9.90603 6.31543 9.90603 6.31543L5.6874 7.44582L4.82227 12.3573Z" fill="#FBBC04"/>
<path d="M14.9033 0.37653C16.9673 1.04201 18.7339 2.43911 19.8025 4.49926L14.8357 10.418C14.8357 10.418 15.5706 9.56366 15.5706 8.34973C15.5706 6.52697 14.0358 5.16526 12.3777 5.16526C10.8097 5.16526 9.90918 6.30841 9.90918 6.30841V2.57969L14.9033 0.376465V0.37653Z" fill="#4285F4"/>
<path d="M5.96582 2.99378C7.19859 1.51884 9.3678 0 12.3584 0C13.8093 0 14.9024 0.380919 14.9024 0.380919L9.90879 6.31372H6.37075L5.96582 2.99378Z" fill="#1A73E8"/>
<path d="M4.82503 12.3541C4.82503 12.3541 4 10.7384 4 8.3978C4 6.18562 4.85996 4.25191 5.96347 2.99121L9.90925 6.31168L4.82503 12.3541Z" fill="#EA4335"/>
</svg>
