<svg viewBox="0 0 162 229" xmlns="http://www.w3.org/2000/svg">
<path d="M14.7438 210.628L0 45.2671H162L147.243 210.601L80.9008 228.996L14.7438 210.628Z" fill="#d6ba32"/>
<path d="M81.002 214.938L134.608 200.076L147.219 58.7905H81.002V214.938Z" fill="#ffda3e" />
<path d="M73.9811 137.051C73.9811 173.641 73.8083 196.019 73.5923 196.019C72.9443 196.019 41.3652 187.465 37.6932 186.299C35.922 185.737 33.2004 184.959 31.6452 184.571C30.09 184.182 27.5412 183.491 25.8996 183.015L23.0052 182.151V172.431C23.0052 163.316 23.0484 162.668 23.7828 162.971C24.1716 163.1 28.4916 164.31 33.3732 165.606C42.7044 168.155 47.7156 169.537 52.5108 170.919L55.4052 171.783V124.911V78.0826H64.6932H73.9811V137.051ZM138.997 79.897C138.738 81.9274 137.485 95.7514 137.485 96.313C137.485 96.4858 130.184 96.6586 121.285 96.6586H105.085V112.643C105.085 121.412 105.172 128.627 105.258 128.627C105.474 128.627 118.52 126.683 128.759 125.127C132.171 124.609 135.023 124.307 135.152 124.436C135.368 124.652 130.314 182.54 129.968 183.663C129.925 183.879 128.327 184.527 126.426 185.089C121.976 186.428 87.2435 196.019 86.8547 196.019C86.6387 196.019 86.5091 191.699 86.5091 186.385V176.795L98.3027 173.598C104.74 171.827 110.269 170.228 110.485 170.055C110.744 169.883 111.652 169.623 112.559 169.451C113.423 169.278 114.157 169.019 114.157 168.846C114.157 168.716 114.676 163.489 115.28 157.225C115.928 151.004 116.317 145.777 116.188 145.647C115.972 145.388 114.157 145.647 96.0995 148.499C91.5203 149.19 87.5027 149.795 87.1571 149.795C86.5955 149.795 86.5091 145.172 86.5091 113.939V78.0826H112.861H139.213L138.997 79.897Z" fill="white"/>
<path d="M66.9601 22.896H53.1361V31.104H74.7361V0H66.9601V22.896Z" fill="#d6ba32" />
<path d="M79.4882 19.008H90.0722C98.237 19.008 100.656 19.1376 100.699 19.5264C100.699 19.8288 100.786 20.736 100.872 21.4704L101.002 22.896H79.4882V31.104H108.864V11.664H87.653L87.7826 9.8064L87.9122 7.992L97.2002 7.9488C102.298 7.9488 107.007 7.9056 107.698 7.8624L108.864 7.776V0H79.4882V19.008Z" fill="#d6ba32" />
</svg>
