<svg viewBox="0 0 34 31" xmlns="http://www.w3.org/2000/svg">
<path d="M16.875 0.25C12.7734 0.25 9.49219 3.58984 9.49219 7.63281C9.49219 10.9727 14.2969 16.9492 16.1133 19.1758C16.5234 19.5859 17.168 19.5859 17.5781 19.1758C19.3945 16.9492 24.2578 10.9727 24.2578 7.63281C24.2578 3.58984 20.918 0.25 16.875 0.25ZM16.875 10.0938C15.4688 10.0938 14.4141 9.03906 14.4141 7.63281C14.4141 6.28516 15.4688 5.17188 16.875 5.17188C18.2227 5.17188 19.3359 6.28516 19.3359 7.63281C19.3359 9.03906 18.2227 10.0938 16.875 10.0938ZM1.17188 12.9062C0.46875 13.1992 0 13.9023 0 14.6641V29.3125C0 30.0156 0.644531 30.4844 1.23047 30.1914L9.375 26.5V12.8477C8.84766 11.9102 8.37891 11.0312 8.08594 10.1523L1.17188 12.9062ZM16.875 21.3438C15.9961 21.3438 15.2344 20.9922 14.707 20.3477C13.5352 19 12.3047 17.4766 11.25 15.8359V26.5L22.5 30.25V15.8359C21.3867 17.4766 20.1562 19 18.9844 20.3477C18.457 20.9922 17.6953 21.3438 16.875 21.3438ZM32.4609 9.74219L24.375 13.375V30.25L32.5195 27.0273C33.2227 26.7344 33.75 26.0312 33.75 25.2695V10.6211C33.75 9.91797 33.0469 9.44922 32.4609 9.74219Z" />
</svg>
