<svg viewBox="0 0 31 31" xmlns="http://www.w3.org/2000/svg">
<path d="M10.5024 12.9062H19.8774C20.3462 12.9062 20.8149 12.4961 20.8149 11.9688V11.0312C20.8149 10.5625 20.3462 10.0938 19.8774 10.0938H10.5024C9.9751 10.0938 9.56494 10.5625 9.56494 11.0312V11.9688C9.56494 12.4961 9.9751 12.9062 10.5024 12.9062ZM9.56494 17.5938C9.56494 18.1211 9.9751 18.5312 10.5024 18.5312H19.8774C20.3462 18.5312 20.8149 18.1211 20.8149 17.5938V16.6562C20.8149 16.1875 20.3462 15.7188 19.8774 15.7188H10.5024C9.9751 15.7188 9.56494 16.1875 9.56494 16.6562V17.5938ZM15.1899 24.7422C14.1938 24.7422 13.2563 24.4492 12.436 23.8047L0.189941 14.957V27.4375C0.189941 29.0195 1.42041 30.25 3.00244 30.25H27.3774C28.9009 30.25 30.1899 29.0195 30.1899 27.4375V14.957L17.8853 23.8047C17.0649 24.4492 16.1274 24.7422 15.1899 24.7422ZM29.0767 9.80078C28.5493 9.44922 28.0806 9.03906 27.3774 8.51172V5.875C27.3774 4.35156 26.0884 3.0625 24.5649 3.0625H19.9946C19.8188 2.94531 19.6431 2.82812 19.4673 2.71094C18.4712 2.00781 16.5376 0.25 15.1899 0.25C13.7837 0.25 11.8501 2.00781 10.854 2.71094C10.6782 2.82812 10.5024 2.94531 10.3267 3.0625H5.81494C4.23291 3.0625 3.00244 4.35156 3.00244 5.875V8.51172C2.24072 9.03906 1.77197 9.44922 1.24463 9.80078C0.600098 10.3281 0.189941 11.1484 0.189941 12.0273V12.6719L5.81494 16.7148V5.875H24.5649V16.7148L30.1899 12.6719V12.0273C30.1899 11.1484 29.7798 10.3867 29.0767 9.80078Z" />
</svg>
