<svg viewBox="0 0 128 128" xmlns="http://www.w3.org/2000/svg">
<path d="M98 0H30C13.4315 0 0 13.4315 0 30V98C0 114.569 13.4315 128 30 128H98C114.569 128 128 114.569 128 98V30C128 13.4315 114.569 0 98 0Z" fill="#242938"/>
<path d="M64 19C39.1797 19 19 39.1797 19 64C19 88.8203 39.1797 109 64 109C71.875 109 79.2578 106.961 85.6563 103.445L53.0313 57.8828V83.6172H48.25V48.3906H53.0313L88.5391 101.687C100.844 93.6719 109 79.8203 109 64C109 39.1797 88.8203 19 64 19ZM79.5391 78.4844L74.2656 70.5391V48.3906H79.5391V78.4844Z" fill="#fff"/>
</svg>
