<svg width="24" height="24" viewBox="0 0 24 24" fill="none" xmlns="http://www.w3.org/2000/svg">
<path fill-rule="evenodd" clip-rule="evenodd" d="M16.5212 15.7985C16.3157 15.7301 16.2951 15.4463 16.531 15.3332C20.7448 13.3329 20.4686 8.81687 20.4686 8.81687C20.4469 4.22802 17.0876 -0.0248948 11.6529 0.000109713C5.6073 0.0283757 1.97405 4.78464 2.00014 10.4085C2.0458 20.2504 9.56233 24.0108 11.9051 24L11.8866 20.087C11.8834 19.4636 11.8809 18.9828 12.2661 18.9828C12.2661 18.9828 14.6861 21.4082 17.3735 21.3963C21.5601 21.3767 22.981 17.8707 22.981 17.8707L16.5201 15.7985H16.5212ZM11.679 12.7958C9.54168 12.8056 7.80007 11.0814 7.79029 8.943C7.78052 6.80566 9.50471 5.06404 11.6431 5.05427C13.7805 5.04447 15.5221 6.76868 15.5319 8.9071C15.5417 11.0444 13.8174 12.7861 11.679 12.7958Z" fill="#0055DA"/>
</svg>
