<svg width="24" height="24" viewBox="0 0 24 24" fill="none" xmlns="http://www.w3.org/2000/svg">
<rect width="24" height="24" rx="4" fill="#050505"/>
<path d="M6 18.0088C8.65492 20.6637 12.9594 20.6637 15.6143 18.0088C18.2692 15.3539 18.2692 11.0495 15.6143 8.39453L14.4125 9.59631C16.4037 11.5875 16.4037 14.8159 14.4125 16.807C12.4213 18.7982 9.19297 18.7982 7.20178 16.807L6 18.0088Z" fill="#00E9A3"/>
<path d="M8.40234 15.606C9.72979 16.9334 11.882 16.9334 13.2095 15.606C14.5369 14.2785 14.5369 12.1263 13.2095 10.7988L12.0077 12.0006C12.6714 12.6643 12.6714 13.7404 12.0077 14.4042C11.344 15.0679 10.2678 15.0679 9.60413 14.4042L8.40234 15.606Z" fill="#00E9A3"/>
<path d="M18.0186 5.99118C15.3636 3.33627 11.0592 3.33627 8.40427 5.99118C5.74936 8.6461 5.74936 12.9506 8.40427 15.6055L9.60604 14.4037C7.61489 12.4125 7.61489 9.18415 9.60604 7.19299C11.5972 5.20179 14.8256 5.20179 16.8168 7.19299L18.0186 5.99118Z" fill="#00C98D"/>
<path d="M15.6143 8.395C14.2868 7.06755 12.1346 7.06755 10.8071 8.395C9.47965 9.72247 9.47965 11.8747 10.8071 13.2021L12.0089 12.0004C11.3452 11.3366 11.3452 10.2605 12.0089 9.59677C12.6726 8.93305 13.7487 8.93305 14.4125 9.59677L15.6143 8.395Z" fill="#00C98D"/>
<path d="M18.0186 5.99118C15.3636 3.33627 11.0592 3.33627 8.40427 5.99118C5.74936 8.6461 5.74936 12.9506 8.40427 15.6055L9.60604 14.4037C7.61489 12.4125 7.61489 9.18415 9.60604 7.19299C11.5972 5.20179 14.8256 5.20179 16.8168 7.19299L18.0186 5.99118Z" fill="#CCFBED"/>
<path d="M15.6143 8.395C14.2868 7.06755 12.1346 7.06755 10.8071 8.395C9.47965 9.72247 9.47965 11.8747 10.8071 13.2021L12.0089 12.0004C11.3452 11.3366 11.3452 10.2605 12.0089 9.59677C12.6726 8.93305 13.7487 8.93305 14.4125 9.59677L15.6143 8.395Z" fill="#CCFBED"/>
</svg>
