<svg viewBox="0 0 30 29" xmlns="http://www.w3.org/2000/svg">
<path d="M9.91797 22.8754C9.91797 22.7582 9.80078 22.641 9.625 22.641C9.44922 22.641 9.33203 22.7582 9.33203 22.8754C9.33203 22.9926 9.44922 23.1097 9.625 23.0511C9.80078 23.0511 9.91797 22.9926 9.91797 22.8754ZM8.10156 22.5824C8.10156 22.6996 8.21875 22.8754 8.39453 22.8754C8.51172 22.934 8.6875 22.8754 8.74609 22.7582C8.74609 22.641 8.6875 22.5238 8.51172 22.4652C8.33594 22.4066 8.16016 22.4652 8.10156 22.5824ZM10.7383 22.5238C10.5625 22.5238 10.4453 22.641 10.4453 22.8168C10.4453 22.934 10.6211 22.9926 10.7969 22.934C10.9727 22.8754 11.0898 22.8168 11.0312 22.6996C11.0312 22.5824 10.8555 22.4652 10.7383 22.5238ZM14.5469 0.0238037C6.46094 0.0238037 0.25 6.23474 0.25 14.3207C0.25 20.8246 4.29297 26.391 10.1523 28.3832C10.9141 28.5004 11.1484 28.0316 11.1484 27.6801C11.1484 27.2699 11.1484 25.2777 11.1484 24.0472C11.1484 24.0472 7.04688 24.9261 6.16797 22.2894C6.16797 22.2894 5.52344 20.5902 4.58594 20.1801C4.58594 20.1801 3.23828 19.2426 4.64453 19.2426C4.64453 19.2426 6.10938 19.3597 6.92969 20.766C8.21875 23.0511 10.3281 22.4066 11.207 21.9965C11.3242 21.059 11.6758 20.4144 12.1445 20.0043C8.86328 19.6527 5.52344 19.184 5.52344 13.559C5.52344 11.9183 5.99219 11.1566 6.92969 10.1019C6.75391 9.69177 6.28516 8.16833 7.10547 6.11755C8.27734 5.76599 11.1484 7.69958 11.1484 7.69958C12.3203 7.34802 13.5508 7.23083 14.7812 7.23083C16.0703 7.23083 17.3008 7.34802 18.4727 7.69958C18.4727 7.69958 21.2852 5.7074 22.5156 6.11755C23.3359 8.16833 22.8086 9.69177 22.6914 10.1019C23.6289 11.1566 24.2148 11.9183 24.2148 13.559C24.2148 19.184 20.7578 19.6527 17.4766 20.0043C18.0039 20.473 18.4727 21.3519 18.4727 22.7582C18.4727 24.6918 18.4141 27.1527 18.4141 27.6215C18.4141 28.0316 18.707 28.5004 19.4688 28.3246C25.3281 26.391 29.3125 20.8246 29.3125 14.3207C29.3125 6.23474 22.6914 0.0238037 14.5469 0.0238037ZM5.93359 20.2386C5.81641 20.2972 5.875 20.473 5.93359 20.5902C6.05078 20.6488 6.16797 20.7074 6.28516 20.6488C6.34375 20.5902 6.34375 20.4144 6.22656 20.2972C6.10938 20.2386 5.99219 20.1801 5.93359 20.2386ZM5.28906 19.7699C5.23047 19.8871 5.28906 19.9457 5.40625 20.0043C5.52344 20.0629 5.64062 20.0629 5.69922 19.9457C5.69922 19.8871 5.64062 19.8285 5.52344 19.7699C5.40625 19.7113 5.34766 19.7113 5.28906 19.7699ZM7.16406 21.8793C7.10547 21.9379 7.10547 22.1136 7.28125 22.2308C7.39844 22.348 7.57422 22.4066 7.63281 22.2894C7.69141 22.2308 7.69141 22.0551 7.57422 21.9379C7.45703 21.8207 7.28125 21.7621 7.16406 21.8793ZM6.51953 21.0004C6.40234 21.059 6.40234 21.2347 6.51953 21.3519C6.63672 21.4691 6.75391 21.5277 6.87109 21.4691C6.92969 21.4105 6.92969 21.2347 6.87109 21.1176C6.75391 21.0004 6.63672 20.9418 6.51953 21.0004Z" />
</svg>
