<svg width="26" height="24" viewBox="0 0 26 24" fill="none" xmlns="http://www.w3.org/2000/svg">
<path d="M23.7626 15.5924C23.7613 16.1361 23.5447 16.6572 23.1602 17.0417C22.7757 17.4262 22.2545 17.6428 21.7108 17.6442H4.46201C3.91824 17.6428 3.39713 17.4262 3.01263 17.0417C2.62813 16.6572 2.41151 16.1361 2.41016 15.5924V9.05625C2.41151 8.51248 2.62813 7.99137 3.01263 7.60687C3.39713 7.22236 3.91824 7.00575 4.46201 7.00439H21.7108C22.2545 7.00575 22.7757 7.22236 23.1602 7.60687C23.5447 7.99137 23.7613 8.51248 23.7626 9.05625V15.5924Z" fill="url(#paint0_linear_1660_25)"/>
<path d="M20.156 12.1849C20.5319 12.2615 20.8706 12.4636 21.1164 12.7582C21.3621 13.0527 21.5004 13.4221 21.5085 13.8057C21.5173 14.0357 21.4711 14.2646 21.3737 14.4733C21.2764 14.682 21.1307 14.8644 20.9488 15.0056C20.4867 15.342 19.9238 15.511 19.3529 15.4847C18.6776 15.4771 18.0159 15.2946 17.4322 14.955C17.4442 14.7573 17.4906 14.5633 17.5693 14.3816C17.6379 14.1999 17.7396 14.0325 17.8693 13.8879C18.3006 14.1379 18.7848 14.2827 19.2826 14.3105C19.4344 14.3192 19.5856 14.286 19.7197 14.2145C19.7661 14.1895 19.8047 14.1523 19.8316 14.107C19.8585 14.0618 19.8725 14.01 19.8723 13.9574C19.8723 13.7557 19.7163 13.6045 19.4043 13.504L18.8446 13.2923C17.9979 12.9837 17.5745 12.4803 17.5745 11.7821C17.5647 11.5524 17.6077 11.3236 17.7003 11.1132C17.7929 10.9028 17.9325 10.7164 18.1084 10.5685C18.5059 10.2173 19.0162 10.0202 19.5466 10.0131C19.8789 10.0174 20.2096 10.0597 20.5322 10.1391C20.8428 10.2365 21.1399 10.3724 21.4167 10.5436C21.426 10.7556 21.3879 10.967 21.3053 11.1624C21.2439 11.3493 21.131 11.5151 20.9796 11.6407C20.5363 11.4179 20.0522 11.2879 19.5569 11.2584C19.4459 11.2507 19.3359 11.2829 19.2466 11.3493C19.2124 11.3772 19.1851 11.4126 19.1667 11.4527C19.1483 11.4928 19.1393 11.5365 19.1403 11.5807C19.1403 11.7418 19.2692 11.8692 19.5269 11.9629L20.1577 12.1849H20.156ZM15.6572 12.1849C16.0329 12.2616 16.3714 12.4639 16.617 12.7584C16.8626 13.0529 17.0008 13.4222 17.0088 13.8057C17.0176 14.0357 16.9715 14.2645 16.8744 14.4731C16.7772 14.6818 16.6317 14.8643 16.45 15.0056C15.9878 15.3418 15.425 15.5108 14.8541 15.4847C14.1788 15.477 13.5171 15.2945 12.9334 14.955C12.9453 14.7573 12.9917 14.5633 13.0705 14.3816C13.1389 14.1998 13.2406 14.0324 13.3705 13.8879C13.8018 14.1379 14.286 14.2827 14.7838 14.3105C14.9356 14.3193 15.0868 14.2861 15.2209 14.2145C15.2672 14.1894 15.3058 14.1522 15.3327 14.107C15.3595 14.0617 15.3736 14.01 15.3735 13.9574C15.3735 13.7557 15.2175 13.6045 14.9055 13.504L14.3458 13.2923C13.499 12.9837 13.0756 12.4803 13.0756 11.7821C13.0658 11.5524 13.1088 11.3236 13.2014 11.1131C13.294 10.9027 13.4336 10.7164 13.6096 10.5685C14.0068 10.2173 14.5168 10.0203 15.0469 10.0131C15.3792 10.0174 15.7099 10.0596 16.0326 10.1391C16.3431 10.2365 16.6403 10.3724 16.9171 10.5436C16.9263 10.7556 16.8883 10.967 16.8057 11.1624C16.7442 11.3493 16.6313 11.5151 16.48 11.6407C16.0363 11.4178 15.5519 11.2878 15.0563 11.2584C14.9454 11.2506 14.8353 11.2829 14.7461 11.3493C14.712 11.3772 14.6847 11.4126 14.6662 11.4527C14.6478 11.4928 14.6388 11.5366 14.6398 11.5807C14.6398 11.7418 14.7687 11.8692 15.0263 11.9629L15.6572 12.1849ZM12.3694 12.256C12.3724 11.9638 12.3225 11.6734 12.222 11.399C12.1301 11.1471 11.9864 10.9174 11.8003 10.7244C11.6112 10.5324 11.3845 10.3815 11.1343 10.2813C10.8618 10.1345 10.563 10.043 10.255 10.0122C9.89904 10.0388 9.55353 10.1446 9.24362 10.3216C8.96618 10.4475 8.72243 10.6373 8.53224 10.8753C8.33965 11.1219 8.19779 11.4041 8.11484 11.7058C8.0207 12.0451 7.97454 12.3959 7.97771 12.748C7.97467 13.1102 8.01204 13.4715 8.08913 13.8254C8.1547 14.1347 8.28465 14.4267 8.47053 14.6824C8.65301 14.9263 8.89419 15.12 9.17163 15.2455C9.50718 15.4027 9.87331 15.4838 10.2438 15.483C10.9554 15.4938 11.6523 15.2803 12.2357 14.8727C12.2018 14.527 12.0561 14.2018 11.8209 13.9462C11.5818 14.0387 11.3363 14.1138 11.0863 14.1708C10.9018 14.2126 10.7133 14.2353 10.5241 14.2385C10.3966 14.2509 10.2678 14.2351 10.1471 14.1922C10.0264 14.1492 9.91658 14.0802 9.82558 13.9899C9.67257 13.8043 9.59028 13.5705 9.59331 13.33H12.2357C12.3311 12.9802 12.3761 12.6186 12.3694 12.256ZM9.5856 12.3255C9.5864 12.0298 9.65009 11.7376 9.77244 11.4684C9.82624 11.3928 9.89855 11.3323 9.98244 11.2927C10.0663 11.2531 10.159 11.2356 10.2515 11.2421C10.3484 11.2362 10.4452 11.2554 10.5326 11.2977C10.62 11.34 10.695 11.4041 10.7504 11.4838C10.8673 11.7103 10.9245 11.9628 10.9166 12.2175V12.3289H9.5856V12.3255Z" fill="#F6F6F6"/>
<path d="M24.2955 12.9987C24.1444 13.1346 24.0253 13.3024 23.9467 13.4898C23.8682 13.6773 23.8321 13.8799 23.8412 14.0829V15.8408C23.8604 16.0942 23.817 16.3483 23.715 16.581C23.6129 16.8137 23.4552 17.0178 23.2558 17.1753C22.8454 17.4789 22.3488 17.6437 21.8382 17.6458H21.5185V16.7647C21.7119 16.7188 21.8886 16.6197 22.0285 16.4785C22.1487 16.363 22.2428 16.2232 22.3047 16.0685C22.3667 15.9137 22.3949 15.7476 22.3876 15.5811V14.1609C22.3578 13.77 22.4339 13.3783 22.6079 13.027C22.8714 12.6903 23.2296 12.4402 23.6364 12.3088C23.1485 12.1199 22.7455 11.761 22.5016 11.2983C22.3967 10.9765 22.3574 10.637 22.3859 10.2998V8.9987C22.4052 8.6679 22.2924 8.34296 22.0722 8.09534C21.9206 7.94859 21.7259 7.85427 21.5168 7.82622V7.00342H22.3122C22.6391 7.02599 22.9485 7.15966 23.189 7.38225C23.4661 7.60386 23.6677 7.90602 23.7658 8.24704C23.8207 8.44213 23.8455 8.64443 23.8395 8.847V10.3529C23.8259 10.5693 23.8569 10.7862 23.9306 10.9901C24.0044 11.194 24.1192 11.3806 24.2681 11.5382C24.4765 11.7305 24.7272 11.8711 25 11.9488V12.6293C24.7398 12.6927 24.4987 12.818 24.2972 12.9944L24.2955 12.9987ZM4.08035 7.00428H3.79409C3.46712 7.02664 3.15768 7.16034 2.91729 7.3831C2.62582 7.59121 2.42063 7.89884 2.34048 8.2479C2.30974 8.44631 2.29883 8.64729 2.30791 8.84786V10.3538C2.31573 10.5732 2.27829 10.7919 2.19793 10.9963C2.11757 11.2007 1.996 11.3863 1.8408 11.5417C1.5895 11.7309 1.304 11.8697 1 11.9505V12.6302C1.29272 12.695 1.56899 12.8192 1.81166 12.9953C1.96856 13.1287 2.0942 13.2949 2.17967 13.4823C2.26513 13.6697 2.30833 13.8736 2.30619 14.0795V15.8374C2.27995 16.0876 2.31598 16.3405 2.41108 16.5735C2.50619 16.8064 2.65741 17.0123 2.8513 17.1727C3.26164 17.4766 3.75825 17.6418 4.26891 17.6441H4.62974V16.7647C4.42503 16.7168 4.23558 16.6184 4.07864 16.4785C3.96524 16.3598 3.87828 16.2185 3.82347 16.0639C3.76866 15.9092 3.74725 15.7446 3.76066 15.5811V14.1618C3.77908 13.767 3.68865 13.3747 3.49925 13.0278C3.23575 12.6912 2.87756 12.4411 2.47075 12.3096C2.95841 12.1209 3.36143 11.7624 3.60553 11.3C3.72668 10.9817 3.7801 10.6416 3.76237 10.3015V8.99956C3.73181 8.67454 3.82929 8.35043 4.03407 8.0962C4.17684 7.97958 4.34607 7.89982 4.52689 7.86393H4.89372V7.00428H4.08035Z" fill="#F6F6F6" stroke="#404040" stroke-width="0.09375" stroke-miterlimit="10"/>
<path d="M7.46127 14.1378H7.187C6.88874 14.1378 6.77646 13.9809 6.77646 13.6655V7.87251C6.7928 7.60802 6.71102 7.34679 6.54676 7.13885C6.4182 6.99829 6.1945 7 5.87567 7H5.18315V13.9475C5.15495 14.3263 5.26184 14.7028 5.48484 15.0103C5.61419 15.1343 5.76897 15.2286 5.93843 15.2868C6.10789 15.3449 6.28798 15.3655 6.4662 15.3471C6.83088 15.3429 7.19462 15.3091 7.55383 15.246C7.58078 15.1022 7.59113 14.9558 7.58469 14.8097C7.58371 14.5809 7.54251 14.354 7.46298 14.1395L7.46127 14.1378Z" fill="#F6F6F6"/>
<defs>
<linearGradient id="paint0_linear_1660_25" x1="13.0868" y1="7.00439" x2="13.0868" y2="17.6442" gradientUnits="userSpaceOnUse">
<stop offset="0.15" stop-color="#2A4F84"/>
<stop offset="0.388" stop-color="#294E82"/>
<stop offset="1" stop-color="#172E4E"/>
</linearGradient>
</defs>
</svg>
