<svg width="24" height="24" viewBox="0 0 24 24" fill="none" xmlns="http://www.w3.org/2000/svg">
<g clip-path="url(#clip0_1709_9)">
<path d="M21 0H3C1.34315 0 0 1.34315 0 3V21C0 22.6569 1.34315 24 3 24H21C22.6569 24 24 22.6569 24 21V3C24 1.34315 22.6569 0 21 0Z" fill="white"/>
<path fill-rule="evenodd" clip-rule="evenodd" d="M4.64241 15.3551C4.45519 15.0663 4.45237 14.6983 4.63512 14.4067L11.516 3.4279C11.8987 2.81726 12.8229 2.87066 13.1294 3.52111L19.4154 16.859C19.6487 17.3539 19.3802 17.9361 18.8465 18.0927L9.06815 20.9621C8.67473 21.0775 8.25082 20.9229 8.0309 20.5835L4.64241 15.3551ZM12.3099 6.63801C12.3762 6.31504 12.8286 6.26847 12.9622 6.57086L17.2983 16.3849C17.3798 16.5697 17.2783 16.7828 17.0811 16.8403L10.325 18.813C10.0767 18.8855 9.83877 18.6733 9.8898 18.4247L12.3099 6.63801Z" fill="#2D3748"/>
</g>
<defs>
<clipPath id="clip0_1709_9">
<rect width="24" height="24" fill="white"/>
</clipPath>
</defs>
</svg>
