<svg width="24" height="24" viewBox="0 0 24 24" fill="none" xmlns="http://www.w3.org/2000/svg">
<rect width="24" height="24" rx="4" fill="#300D4F"/>
<path d="M11.8087 20.9751V16.4636V16.4636C11.8087 16.4462 11.8277 16.4364 11.8427 16.4277L17.5779 13.1059C17.5929 13.0972 17.6119 13.0874 17.6119 13.07V13.07V11.7875C17.6119 11.7705 17.6006 11.7591 17.5836 11.7591V11.7591C17.5746 11.7591 17.5675 11.7676 17.5598 11.772L11.8483 15.0846C11.8378 15.0898 11.8224 15.0902 11.8158 15.0766C11.8147 15.0745 11.8143 15.0708 11.8133 15.0686V15.0686C11.8109 15.0631 11.8087 15.0585 11.8087 15.0526V13.7794V13.7794C11.8087 13.762 11.8277 13.7523 11.8427 13.7436L17.5779 10.4216C17.5929 10.4129 17.6119 10.4032 17.6119 10.3858V10.3858V9.10329C17.6119 9.08625 17.6006 9.07494 17.5836 9.07494V9.07494C17.5746 9.07494 17.5675 9.08338 17.5598 9.08786L11.8483 12.3947C11.8378 12.4 11.8224 12.4004 11.8158 12.3867C11.8147 12.3845 11.8143 12.3809 11.8134 12.3787V12.3787C11.811 12.3733 11.8087 12.3687 11.8087 12.3627V11.0895V11.0895C11.8087 11.0721 11.8277 11.0624 11.8427 11.0537L17.5779 7.73177C17.5929 7.72306 17.6119 7.71333 17.6119 7.69594V7.69594V6.39072C17.6119 6.3737 17.6006 6.35667 17.5836 6.34532L11.8314 3.00851C11.8144 2.99716 11.7974 2.99716 11.7805 3.00851L10.6832 3.6441C10.675 3.6482 10.6698 3.65825 10.6697 3.6678C10.6696 3.67482 10.6714 3.68134 10.6774 3.68504V3.68504C10.6808 3.68715 10.685 3.6905 10.6884 3.6925L16.4071 7.00361C16.4164 7.00827 16.4219 7.02061 16.4204 7.03432C16.4197 7.0404 16.4194 7.04619 16.4142 7.04947V7.04947C16.41 7.05211 16.405 7.05593 16.4007 7.05841L15.3099 7.69026V7.69026C15.2797 7.71045 15.243 7.68102 15.2116 7.66277L9.51241 4.35345C9.49544 4.3421 9.47281 4.3421 9.45585 4.35345L8.36423 4.98904C8.35605 4.99314 8.35082 5.00319 8.3507 5.01272C8.35061 5.01976 8.35243 5.02628 8.3584 5.02999V5.02999C8.36177 5.03209 8.36596 5.03544 8.3694 5.03743L14.0881 8.35422C14.0963 8.35831 14.1015 8.36831 14.1017 8.37783C14.1018 8.38492 14.0999 8.39148 14.0939 8.39522V8.39522C14.0906 8.3973 14.0864 8.40062 14.083 8.40259L12.9965 9.03523C12.9796 9.04654 12.957 9.04654 12.94 9.03523L7.18777 5.69839C7.1708 5.68704 7.14818 5.68704 7.13121 5.69839V5.69839C6.43084 6.10595 6 6.85516 6 7.66548V17.644V17.644C6 17.6613 6.01893 17.671 6.03397 17.6798L7.1199 18.3079C7.1304 18.3132 7.14579 18.3136 7.15246 18.2999C7.15352 18.2978 7.15396 18.2941 7.15493 18.2919V18.2919C7.15732 18.2864 7.15949 18.2818 7.15949 18.2759V7.07738C7.15949 7.06036 7.1708 7.04901 7.18777 7.04901V7.04901C7.19671 7.04901 7.20385 7.05744 7.21158 7.06191L8.28498 7.68281C8.30004 7.69153 8.31898 7.70124 8.31898 7.71864V7.71864V18.9889V18.9889C8.31898 19.0063 8.33791 19.016 8.35296 19.0247L9.43888 19.6528C9.44914 19.658 9.46405 19.6585 9.47518 19.6458C9.47752 19.6431 9.47882 19.6378 9.48063 19.6348V19.6348C9.48307 19.6306 9.48412 19.6275 9.48412 19.6227V8.42232C9.48412 8.4053 9.49544 8.39395 9.51241 8.39395V8.39395C9.52134 8.39395 9.52848 8.40238 9.53622 8.40685L10.6096 9.02772C10.6247 9.03644 10.6436 9.04617 10.6436 9.06358V9.06358V20.3338V20.3338C10.6436 20.3512 10.6626 20.361 10.6776 20.3697L11.7635 20.9978C11.77 21.001 11.7783 21.0006 11.7853 20.9974C11.7954 20.993 11.8087 20.9862 11.8087 20.9751V20.9751Z" fill="#00DC73"/>
</svg>
