<svg viewBox="0 0 256 256" xmlns="http://www.w3.org/2000/svg">
<path d="M196 0H60C26.8629 0 0 26.8629 0 60V196C0 229.137 26.8629 256 60 256H196C229.137 256 256 229.137 256 196V60C256 26.8629 229.137 0 196 0Z" fill="#242938"/>
<path d="M128.047 109.913C131.481 109.913 134.838 110.929 137.696 112.833C140.554 114.738 142.784 117.445 144.107 120.614C145.429 123.783 145.785 127.273 145.128 130.644C144.471 134.014 142.832 137.116 140.417 139.557C138.002 141.998 134.918 143.67 131.554 144.362C128.191 145.055 124.698 144.736 121.514 143.448C118.331 142.159 115.601 139.957 113.666 137.12C111.732 134.283 110.68 130.936 110.643 127.502C110.631 125.205 111.071 122.927 111.939 120.8C112.807 118.672 114.086 116.737 115.702 115.103C117.318 113.47 119.24 112.171 121.358 111.28C123.476 110.39 125.749 109.925 128.047 109.913ZM84.9567 201.956C90.8199 205.492 103.57 200.094 118.461 186.134C113.484 180.479 108.794 174.577 104.408 168.452C96.9011 167.611 89.4451 166.368 82.0717 164.729C77.3253 184.645 79.0935 198.326 84.9567 201.956ZM91.5644 148.535L88.8655 143.789C87.8134 146.403 86.9123 149.075 86.1666 151.793C88.6794 152.351 91.4714 152.817 94.3564 153.282L91.5644 148.535ZM152.43 141.462L159.968 127.502L152.43 113.542C149.638 108.61 146.66 104.236 143.961 99.8616C138.935 99.5824 133.631 99.5824 128.047 99.5824C122.463 99.5824 117.158 99.5824 112.132 99.5824C109.433 103.957 106.455 108.331 103.663 113.263L96.1247 127.502L103.663 141.462C106.455 146.395 109.433 150.769 112.132 155.143C117.158 155.143 122.463 155.143 128.047 155.143C133.631 155.143 138.935 155.143 143.961 155.143C146.66 150.769 149.638 146.395 152.43 141.462ZM128.047 78.9217C126.278 80.9691 124.417 83.1097 122.556 85.6225H133.537C131.676 83.1097 129.815 80.9691 128.047 78.9217ZM128.047 176.083C129.815 174.036 131.676 171.895 133.537 169.382H122.556C124.417 171.895 126.278 174.036 128.047 176.083ZM171.043 53.0492C165.273 49.5126 152.43 54.9105 137.632 68.8705C142.609 74.5261 147.3 80.4278 151.685 86.5531C159.185 87.2708 166.641 88.3892 174.021 89.9035C178.768 69.9873 177 56.3065 171.043 52.6769M164.529 106.097L167.228 110.843C168.28 108.229 169.181 105.557 169.926 102.84C167.414 102.281 164.622 101.816 161.737 101.351L164.529 106.097ZM178.023 40.9505C191.704 48.7681 193.193 69.3358 187.33 93.347C210.969 100.327 228 111.96 228 127.595C228 143.231 210.969 154.864 187.33 161.844C193.1 185.855 191.611 206.423 178.023 214.24C164.436 222.058 145.915 213.124 128.047 196.092C110.178 213.124 91.6575 222.058 77.9767 214.24C64.2959 206.423 62.9 186.32 68.6701 161.844C45.0312 154.864 28 143.231 28 127.595C28 111.96 45.0312 100.234 68.6701 93.2539C62.9 69.2427 64.389 48.675 77.9767 40.8574C91.5644 33.0399 110.178 41.9742 128.047 59.0054C145.915 41.9742 164.436 33.0399 178.023 40.8574M175.324 127.502C178.557 134.353 181.415 141.375 183.886 148.535C203.43 142.672 214.412 134.296 214.412 127.502C214.412 120.709 203.151 112.333 183.886 106.469C181.415 113.63 178.557 120.651 175.324 127.502ZM80.7687 127.502C77.5365 120.651 74.6783 113.63 72.2066 106.469C52.6626 112.333 41.6808 120.709 41.6808 127.502C41.6808 134.296 52.9418 142.672 72.2066 148.535C74.6783 141.375 77.5365 134.353 80.7687 127.502ZM164.529 148.535L161.737 153.282C164.622 153.282 167.414 152.351 169.926 151.793C169.181 149.075 168.28 146.403 167.228 143.789L164.529 148.535ZM137.353 186.134C152.151 200.094 165.273 205.492 170.764 201.956C176.255 198.419 178.489 185.018 173.742 164.729C166.362 166.243 158.906 167.362 151.406 168.079C147.031 174.332 142.34 180.358 137.353 186.134ZM91.5644 106.469L94.3564 101.723C91.4714 101.723 88.6794 102.654 86.1666 103.212C86.9123 105.929 87.8134 108.602 88.8655 111.216L91.5644 106.469ZM118.74 68.8705C103.663 54.9105 90.8199 49.5126 84.9567 53.0492C79.0935 56.5857 77.3253 69.9873 82.0717 90.2758C89.4519 88.7615 96.9079 87.6431 104.408 86.9254C108.874 80.6666 113.658 74.6404 118.74 68.8705Z" fill="#00D8FF"/>
</svg>
