<svg width="24" height="24" viewBox="0 0 24 24" fill="none" xmlns="http://www.w3.org/2000/svg">
<path d="M23.0576 18.8594C21.7791 19.5281 15.1439 22.2573 13.7146 23.0063C12.2853 23.7554 11.5198 23.7341 10.4019 23.1997C9.28405 22.6654 2.2473 19.8035 0.972068 19.1937C0.329533 18.8921 0.00170898 18.6348 0.00170898 18.3938V15.9663C0.00170898 15.9663 9.1939 13.9715 10.6773 13.4339C12.1607 12.8962 12.6737 12.8831 13.9342 13.3454C15.1947 13.8076 22.7511 15.1713 23.9984 15.6237V18.0169C23.9984 18.266 23.7116 18.5086 23.0576 18.8577V18.8594Z" fill="#A32422"/>
<path d="M23.0575 16.4432C21.779 17.1087 15.1438 19.8378 13.7145 20.5738C12.2852 21.3098 11.5197 21.3032 10.4019 20.7705C9.28398 20.2378 2.24723 17.3759 0.971995 16.7711C-0.30324 16.1662 -0.327827 15.7433 0.922822 15.2549C2.17347 14.7664 9.19382 12.0176 10.6772 11.4767C12.1606 10.9358 12.6737 10.9243 13.9342 11.3882C15.1946 11.852 21.8019 14.4763 23.0428 14.9336C24.2836 15.3909 24.3409 15.7663 23.0575 16.4301V16.4432Z" fill="#DC382C"/>
<path d="M23.0576 14.9059C21.7791 15.573 15.1439 18.3005 13.7146 19.0364C12.2853 19.7724 11.5264 19.7658 10.4085 19.2299C9.29061 18.6939 2.2473 15.8483 0.972068 15.2402C0.329533 14.9354 0.00170898 14.6797 0.00170898 14.4371V12.0177C0.00170898 12.0177 9.1939 10.0163 10.6773 9.4787C12.1607 8.94107 12.6737 8.92632 13.9342 9.39511C15.1947 9.8639 22.7511 11.2145 23.9984 11.6702V14.0633C23.9984 14.3125 23.7116 14.5616 23.0576 14.9059Z" fill="#A32422"/>
<path d="M23.0576 12.4782C21.7791 13.147 15.1439 15.8745 13.7146 16.6105C12.2853 17.3465 11.5198 17.3415 10.402 16.8072C9.28408 16.2728 2.24734 13.4224 0.972104 12.8126C-0.303131 12.2029 -0.326079 11.7882 0.92293 11.2997C2.17194 10.8113 9.19393 8.0559 10.6773 7.52974C12.1607 7.00358 12.6738 6.9708 13.9343 7.42811C15.1948 7.88543 21.802 10.5326 23.0429 10.9768C24.2837 11.421 24.341 11.8111 23.0576 12.4733V12.4782Z" fill="#DC382C"/>
<path d="M23.0576 10.803C21.7791 11.4718 15.1439 14.2009 13.7146 14.9352C12.2853 15.6696 11.5264 15.6647 10.4085 15.1319C9.29061 14.5992 2.2473 11.7455 0.972068 11.1374C0.329533 10.8358 0.00170898 10.5784 0.00170898 10.3358V7.90831C0.00170898 7.90831 9.1939 5.9135 10.6773 5.37751C12.1607 4.84152 12.6737 4.82513 13.9342 5.28736C15.1947 5.74959 22.7478 7.11334 23.9952 7.56902V9.96213C23.9984 10.2146 23.7116 10.4604 23.0576 10.803Z" fill="#A32422"/>
<path d="M23.0575 8.37899C21.779 9.03464 15.1438 11.7802 13.7145 12.5096C12.2852 13.239 11.5197 13.2374 10.4019 12.7063C9.28398 12.1752 2.24723 9.31821 0.971995 8.71174C-0.30324 8.10526 -0.327827 7.68401 0.922822 7.19555C2.17347 6.70709 9.19382 3.95336 10.6772 3.41901C12.1606 2.88466 12.6737 2.86827 13.9342 3.3305C15.1946 3.79273 21.8019 6.42024 23.0428 6.87592C24.2836 7.3316 24.3409 7.71023 23.0575 8.37408V8.37899Z" fill="#DC382C"/>
<path d="M12.377 4.93188L13.9604 4.41228L13.531 5.43837L15.1422 6.04156L13.0655 6.25793L12.5983 7.37909L11.8476 6.12844L9.44629 5.91207L11.2395 5.26626L10.7002 4.27295L12.377 4.93188Z" fill="white"/>
<path d="M12.4771 11.477L8.5957 9.86571L14.1556 9.01172L12.4771 11.477Z" fill="white"/>
<path d="M7.09592 6.66406C8.73504 6.66406 10.0676 7.18038 10.0676 7.81144C10.0676 8.4425 8.73177 8.95883 7.09592 8.95883C5.46008 8.95883 4.12256 8.4425 4.12256 7.81144C4.12256 7.18038 5.45516 6.66406 7.09592 6.66406Z" fill="white"/>
<path d="M17.6025 6.34814L20.8923 7.64796L17.6058 8.94778L17.6025 6.34814Z" fill="#741113"/>
<path d="M17.6026 6.34814L17.6059 8.94778L17.2484 9.08711L13.9604 7.78729L17.6026 6.34814Z" fill="#AC2724"/>
</svg>
