<svg xmlns="http://www.w3.org/2000/svg" viewBox="0 0 450 554"><path d="M223.4 6.2c-13.1 14.3-35 46.8-32.8 48.7 1.9 1.6 10.5 4.2 20.3 6.1 14.6 2.8 30.7 2.7 43.4-.4 5.4-1.3 10.1-2.7 10.5-3 2.2-2.3-22-38.6-36.8-54.9-.4-.4-2.4 1.2-4.6 3.5z"/><path d="M183.4 66.2c-8.7 17.1-16.2 42.5-18.4 62.3-3.4 30.4 2.8 95.8 14.3 152l1.3 6 10.3.3 10.3.3-.6-2.8c-1.1-5.2-2.6-21.8-2.6-29.4 0-9.9 2.5-24.1 5.4-30.4 9.4-20.7 35.6-20.6 44.8.2 3.1 7 4.8 17 4.8 28.3 0 10.2-1.4 26.7-2.6 31.6l-.6 2.4h20.1l1-3.8c.6-2 2.1-9.1 3.5-15.7 8.6-41.8 13.7-85.9 13.9-119.5 0-19.6-.2-22.6-2.6-34-4.3-20.5-14.9-49.8-17.8-49.3-.8.1-5.7 1.4-10.9 2.9-18 4.9-47.5 3.1-65.3-4.1l-5.8-2.3-2.5 5zm56.1 34.4c5.4 2.5 12.2 9.5 14.7 15.1 2.7 6.1 2.8 16.1.3 23.1-2.2 6.1-8.4 13.1-14.7 16.4-6.2 3.3-20.4 3.3-26.5 0-5.5-2.9-11.8-9.4-14.5-15.2-3.2-6.5-3.1-17.7.1-24.3 4.2-8.6 10.4-14.2 18.2-16.6 5.2-1.6 17.7-.8 22.4 1.5z"/><path d="M219 218.2c-5.1 2.6-8.3 6.9-10.7 14.2-2.5 7.9-2.9 33.4-.8 49.3 2.1 15.8 7.4 42.8 11.7 59 3.1 11.8 3.3 12.3 5.9 12.3 2.5 0 2.8-.5 5.7-11.3 4.5-16.5 8.4-34.2 11.8-53.2 2.7-14.5 2.7-50.8.1-58.2-2.4-6.8-5.1-10.1-10.1-12.4-5.4-2.4-8.3-2.4-13.6.3zM155.2 227.8c-6.9 8-12.7 18-15.9 27.7-2.5 7.5-2.7 9.1-2.7 26.5 0 15.7.3 19.8 2.2 27.3 2.7 10.9 8 25.1 13.1 35.3l3.9 7.8 3.5-7.5c1.9-4.1 6.6-14.2 10.4-22.4l6.9-15-1.3-6c-5.7-24.5-8.7-39.9-12.2-62.4l-2.7-17.3-5.2 6zM290.6 225.7c-.3 1-1 5.6-1.6 10.2-1.3 9.9-7 39.3-9.8 50.6-1.1 4.4-2.7 11.1-3.6 15l-1.6 7 9.9 22.5 10 22.5 5.5-11.5c21.2-44.2 20.5-83.6-2-111.2-3.1-3.7-5.8-6.8-5.9-6.8-.2 0-.6.8-.9 1.7zM183 295.6c0 1.7 4.6 20.1 7.6 30.6 1.9 6.5 3.4 12 3.4 12.3 0 .3 3.9.5 8.6.5 8.5 0 8.6 0 8-2.3-.4-1.2-2.5-10.7-4.7-21.2-2.2-10.4-4.5-19.2-5-19.6-1.5-.9-17.9-1.2-17.9-.3zM248.6 297.7c-.3 1-2.1 9.7-4.2 19.3-2 9.6-4 18.5-4.5 19.8l-.9 2.3 8.8-.3 8.7-.3 5.1-18c2.8-9.9 5.4-19.5 5.7-21.3l.7-3.2h-9.5c-8.1 0-9.4.2-9.9 1.7zM189.6 364.7c-.3 2.1-.6 16.7-.6 32.5V426H196.7l.6-8.3c.4-4.5.7-19.1.7-32.5V361h-3.9c-3.7 0-3.9.2-4.5 3.7zM251 394v32h8v-17.8c0-9.7.3-24.1.7-32l.6-14.2H251v32zM220 399.7c0 17.5-.3 36.9-.7 43l-.6 11.3h9.3v-86h-8v31.7z"/><path d="M57.4 380c-18.7 2.7-36.3 15.5-43.5 31.6-6.9 15.4-6.5 34.3 1 49.3 3.3 6.4 11 15.4 16.5 19.2 3.5 2.4 3.6 2.5 3.6 9.6 0 13.3 7.6 27.8 19.1 36.5 18.8 14.1 45.1 12.9 62-2.9l4.8-4.5 8.8-.2c10.2-.1 17.2-2.8 24.2-9.1 2.3-2.1 4.3-3.6 4.4-3.4.2.2 1.1 1.7 2.1 3.4 3.1 5 6.9 8.6 12.1 11.3 4.3 2.3 6.2 2.7 14 2.7 6.6 0 9.8-.5 12.1-1.7 3.1-1.7 3.1-1.7 5.3 1.2 1.2 1.7 4 3.9 6.3 5.1 5.2 2.7 10.3 2.1 16.1-1.7 2.5-1.6 4.2-2.3 4.5-1.6.6 1.9 7.2 5.5 11.4 6.2 5.1 1 11.4-.5 15.3-3.5l3.1-2.3 2.8 5.3c3.7 7.2 10.8 14 18.6 17.8 5.8 2.9 7.5 3.2 16.8 3.5 10.3.4 10.5.3 17.8-3.2 7.5-3.8 15.3-10.6 18-15.8l1.5-2.9 7 6.5c11.7 11.1 23.2 15.6 39.9 15.6 15.2 0 26.5-4 37.6-13.3 22.6-18.8 27.6-49.9 12.3-75.9-4.1-7.1-13.5-16.3-20.6-20.2-4.5-2.6-15.4-6.6-17.7-6.6-.8 0-2.4-1.6-3.6-3.5-1.1-1.9-4.4-5.4-7.1-7.9-17.2-15.5-40.1-17.5-59.1-5.3-11.1 7.1-19.8 20-21.4 31.5-.3 2.8-.9 5.2-1.1 5.2-.3 0-3-.7-6.1-1.6-12.6-3.7-26.2.2-34.9 10-5.9 6.8-8.2 12.4-8.2 20.6l-.1 6.5h-6.7c-5.7 0-7.5.5-11 2.8-2.3 1.5-5 3.8-5.9 5.2-1.5 2.4-1.8 2.4-3.4 1-1-.9-3.3-1.8-5.2-2.2l-3.5-.5-.5-6.8c-.6-8.4-3.7-14.9-9.9-20.4-5.3-4.8-12.4-7.6-19.1-7.6-3.7 0-4.8-.4-5.3-1.9-.3-1.1-2.4-3.8-4.6-6-6.3-6.3-13.4-7.1-22.8-2.7-2.1.9-3.4.6-8.7-2.1-7.3-3.6-15.8-5-22.6-3.6l-4.7.9.6-8.1c1.6-23.2-11.2-45.2-32.1-54.7-8.6-4-21.7-6.1-30.2-4.8z"/></svg>