<svg width="0" height="0" class="hidden">
  <symbol id="email" xmlns="http://www.w3.org/2000/svg" viewBox="0 0 24 24">
    <path d="M22 6c0-1.1-.9-2-2-2H4c-1.1 0-2 .9-2 2v12c0 1.1.9 2 2 2h16c1.1 0 2-.9 2-2V6zm-2 0l-8 5-8-5h16zm0 12H4V8l8 5 8-5v10z"></path>
  </symbol>
  <symbol id="github" xmlns="http://www.w3.org/2000/svg" viewBox="0 0 30 29">
    <path d="M9.91797 22.8754C9.91797 22.7582 9.80078 22.641 9.625 22.641C9.44922 22.641 9.33203 22.7582 9.33203 22.8754C9.33203 22.9926 9.44922 23.1097 9.625 23.0511C9.80078 23.0511 9.91797 22.9926 9.91797 22.8754ZM8.10156 22.5824C8.10156 22.6996 8.21875 22.8754 8.39453 22.8754C8.51172 22.934 8.6875 22.8754 8.74609 22.7582C8.74609 22.641 8.6875 22.5238 8.51172 22.4652C8.33594 22.4066 8.16016 22.4652 8.10156 22.5824ZM10.7383 22.5238C10.5625 22.5238 10.4453 22.641 10.4453 22.8168C10.4453 22.934 10.6211 22.9926 10.7969 22.934C10.9727 22.8754 11.0898 22.8168 11.0312 22.6996C11.0312 22.5824 10.8555 22.4652 10.7383 22.5238ZM14.5469 0.0238037C6.46094 0.0238037 0.25 6.23474 0.25 14.3207C0.25 20.8246 4.29297 26.391 10.1523 28.3832C10.9141 28.5004 11.1484 28.0316 11.1484 27.6801C11.1484 27.2699 11.1484 25.2777 11.1484 24.0472C11.1484 24.0472 7.04688 24.9261 6.16797 22.2894C6.16797 22.2894 5.52344 20.5902 4.58594 20.1801C4.58594 20.1801 3.23828 19.2426 4.64453 19.2426C4.64453 19.2426 6.10938 19.3597 6.92969 20.766C8.21875 23.0511 10.3281 22.4066 11.207 21.9965C11.3242 21.059 11.6758 20.4144 12.1445 20.0043C8.86328 19.6527 5.52344 19.184 5.52344 13.559C5.52344 11.9183 5.99219 11.1566 6.92969 10.1019C6.75391 9.69177 6.28516 8.16833 7.10547 6.11755C8.27734 5.76599 11.1484 7.69958 11.1484 7.69958C12.3203 7.34802 13.5508 7.23083 14.7812 7.23083C16.0703 7.23083 17.3008 7.34802 18.4727 7.69958C18.4727 7.69958 21.2852 5.7074 22.5156 6.11755C23.3359 8.16833 22.8086 9.69177 22.6914 10.1019C23.6289 11.1566 24.2148 11.9183 24.2148 13.559C24.2148 19.184 20.7578 19.6527 17.4766 20.0043C18.0039 20.473 18.4727 21.3519 18.4727 22.7582C18.4727 24.6918 18.4141 27.1527 18.4141 27.6215C18.4141 28.0316 18.707 28.5004 19.4688 28.3246C25.3281 26.391 29.3125 20.8246 29.3125 14.3207C29.3125 6.23474 22.6914 0.0238037 14.5469 0.0238037ZM5.93359 20.2386C5.81641 20.2972 5.875 20.473 5.93359 20.5902C6.05078 20.6488 6.16797 20.7074 6.28516 20.6488C6.34375 20.5902 6.34375 20.4144 6.22656 20.2972C6.10938 20.2386 5.99219 20.1801 5.93359 20.2386ZM5.28906 19.7699C5.23047 19.8871 5.28906 19.9457 5.40625 20.0043C5.52344 20.0629 5.64062 20.0629 5.69922 19.9457C5.69922 19.8871 5.64062 19.8285 5.52344 19.7699C5.40625 19.7113 5.34766 19.7113 5.28906 19.7699ZM7.16406 21.8793C7.10547 21.9379 7.10547 22.1136 7.28125 22.2308C7.39844 22.348 7.57422 22.4066 7.63281 22.2894C7.69141 22.2308 7.69141 22.0551 7.57422 21.9379C7.45703 21.8207 7.28125 21.7621 7.16406 21.8793ZM6.51953 21.0004C6.40234 21.059 6.40234 21.2347 6.51953 21.3519C6.63672 21.4691 6.75391 21.5277 6.87109 21.4691C6.92969 21.4105 6.92969 21.2347 6.87109 21.1176C6.75391 21.0004 6.63672 20.9418 6.51953 21.0004Z"></path>
  </symbol>
  <symbol id="link" xmlns="http://www.w3.org/2000/svg" viewBox="0 0 24 24">
    <path d="M17.657 14.828L16.243 13.414L17.657 12C18.0285 11.6286 18.3231 11.1876 18.5241 10.7023C18.7252 10.217 18.8286 9.69681 18.8286 9.1715C18.8286 8.6462 18.7252 8.12605 18.5241 7.64073C18.3231 7.15542 18.0285 6.71445 17.657 6.343C17.2856 5.97156 16.8446 5.67691 16.3593 5.47589C15.874 5.27487 15.3538 5.1714 14.8285 5.1714C14.3032 5.1714 13.7831 5.27487 13.2977 5.47589C12.8124 5.67691 12.3715 5.97156 12 6.343L10.586 7.757L9.17201 6.343L10.586 4.929C11.7143 3.81892 13.2356 3.19966 14.8184 3.2061C16.4012 3.21255 17.9174 3.84418 19.0366 4.96341C20.1558 6.08265 20.7875 7.5988 20.7939 9.18162C20.8004 10.7644 20.1811 12.2857 19.071 13.414L17.657 14.828V14.828ZM14.828 17.657L13.414 19.071C12.8585 19.6356 12.1968 20.0846 11.4669 20.3922C10.737 20.6998 9.95343 20.8598 9.16139 20.863C8.36936 20.8662 7.58452 20.7126 6.85215 20.411C6.11979 20.1094 5.45438 19.6658 4.89432 19.1057C4.33426 18.5456 3.89063 17.8802 3.58902 17.1479C3.28741 16.4155 3.13379 15.6307 3.13701 14.8386C3.14024 14.0466 3.30025 13.263 3.60781 12.5331C3.91538 11.8033 4.36441 11.1415 4.92901 10.586L6.34301 9.172L7.75701 10.586L6.34301 12C5.97157 12.3714 5.67692 12.8124 5.4759 13.2977C5.27488 13.783 5.17141 14.3032 5.17141 14.8285C5.17141 15.3538 5.27488 15.874 5.4759 16.3593C5.67692 16.8446 5.97157 17.2856 6.34301 17.657C6.71446 18.0284 7.15543 18.3231 7.64074 18.5241C8.12605 18.7251 8.64621 18.8286 9.17151 18.8286C9.69681 18.8286 10.217 18.7251 10.7023 18.5241C11.1876 18.3231 11.6286 18.0284 12 17.657L13.414 16.243L14.828 17.657ZM14.828 7.757L16.243 9.172L9.17201 16.242L7.75701 14.828L14.828 7.758V7.757Z"></path>
  </symbol>
  <symbol id="linkedin" xmlns="http://www.w3.org/2000/svg" viewBox="0 0 512 512">
    <path d="M444.17 32H70.28C49.85 32 32 46.7 32 66.89v374.72C32 461.91 49.85 480 70.28 480h373.78c20.54 0 35.94-18.21 35.94-38.39V66.89C480.12 46.7 464.6 32 444.17 32zm-273.3 373.43h-64.18V205.88h64.18zM141 175.54h-.46c-20.54 0-33.84-15.29-33.84-34.43 0-19.49 13.65-34.42 34.65-34.42s33.85 14.82 34.31 34.42c-.01 19.14-13.31 34.43-34.66 34.43zm264.43 229.89h-64.18V296.32c0-26.14-9.34-44-32.56-44-17.74 0-28.24 12-32.91 23.69-1.75 4.2-2.22 9.92-2.22 15.76v113.66h-64.18V205.88h64.18v27.77c9.34-13.3 23.93-32.44 57.88-32.44 42.13 0 74 27.77 74 87.64z"></path>
  </symbol>
  <symbol id="skype" xmlns="http://www.w3.org/2000/svg" viewBox="0 0 512 512">
    <path d="M467.16 303.6a205.69 205.69 0 004.9-45.15c0-116.32-95.69-210.7-213.79-210.7a221.83 221.83 0 00-36.52 3A123.58 123.58 0 00155.93 32C87.55 32 32 86.72 32 154.15A119.56 119.56 0 0049 216a211.16 211.16 0 00-4.32 42.35c0 116.44 95.69 210.7 213.67 210.7a214 214 0 0039.09-3.5A125.45 125.45 0 00356.07 480C424.57 480 480 425.28 480 357.85a118 118 0 00-12.84-54.25zM368 359c-9.92 13.76-24.51 24.73-43.41 32.43S283.36 403 257.69 403c-30.69 0-56.36-5.37-76.55-15.87a101 101 0 01-35.24-30.8c-9.11-12.83-13.66-25.66-13.66-38 0-7.7 3-14.35 8.87-19.95 5.84-5.37 13.42-8.17 22.29-8.17 7.35 0 13.65 2.1 18.79 6.42 4.9 4.08 9.1 10.15 12.48 18.08A108.09 108.09 0 00207 336.15q6.32 8.22 17.86 13.65c7.82 3.62 18.2 5.48 31 5.48 17.62 0 32.09-3.73 42.94-11.08 10.74-7.12 15.88-15.75 15.88-26.25 0-8.28-2.69-14.82-8.29-19.95-5.83-5.37-13.42-9.57-22.87-12.37-9.69-3-22.87-6.18-39.21-9.56-22.17-4.67-41-10.27-56-16.57-15.28-6.42-27.65-15.4-36.76-26.48-9.22-11.32-13.77-25.55-13.77-42.24a67.86 67.86 0 0114.47-42.58c9.57-12.25 23.46-21.82 41.55-28.35 17.74-6.53 38.86-9.8 62.66-9.8 19.14 0 35.83 2.22 49.83 6.42s25.91 10.15 35.36 17.38 16.34 14.93 20.77 23 6.66 16.22 6.66 24c0 7.46-2.92 14.35-8.76 20.3a29.65 29.65 0 01-21.94 9.1c-7.93 0-14.12-1.87-18.43-5.6-4-3.5-8.17-8.87-12.72-16.69-5.37-9.91-11.79-17.85-19.14-23.45-7.24-5.36-19.14-8.16-35.71-8.16-15.29 0-27.77 3-37 9-8.87 5.72-13.19 12.37-13.19 20.18a18.26 18.26 0 004.32 12.25 38.13 38.13 0 0012.72 9.57 90.14 90.14 0 0017.15 6.53c6 1.64 15.87 4.09 29.53 7.12 17.38 3.62 33.25 7.82 47.26 12.13 14.24 4.55 26.49 10 36.52 16.45a72.93 72.93 0 0124.16 25.09c5.72 10 8.64 22.63 8.64 37.1A75.09 75.09 0 01368 359z"></path>
  </symbol>
</svg>