<svg width="24" height="24" viewBox="0 0 24 24" fill="none" xmlns="http://www.w3.org/2000/svg">
<path fill-rule="evenodd" clip-rule="evenodd" d="M12.0002 5C8.79995 5 6.80031 6.5905 5.99988 9.7715C7.20005 8.181 8.60008 7.58468 10.2 7.98207C11.1128 8.20875 11.7656 8.86714 12.4874 9.59608C13.6641 10.7831 15.026 12.1568 18.0001 12.1568C21.1999 12.1568 23.2 10.5663 24 7.38575C22.8003 8.97625 21.4003 9.57257 19.8004 9.17471C18.8871 8.94803 18.2343 8.28964 17.5124 7.56117C16.3358 6.37323 14.9743 5 12.0002 5ZM5.99988 12.1568C2.80007 12.1568 0.799953 13.7473 0 16.9283C1.20016 15.3378 2.6002 14.7415 4.19964 15.1389C5.11293 15.3655 5.76568 16.0239 6.48757 16.7529C7.66422 17.9399 9.02569 19.3136 12.0002 19.3136C15.2 19.3136 17.2002 17.7235 18.0001 14.5425C16.8 16.133 15.3999 16.7294 13.8 16.332C12.8872 16.1048 12.2344 15.4464 11.5126 14.7179C10.3359 13.531 8.97396 12.1568 5.99988 12.1568Z" fill="#38BDF8"/>
</svg>
