<?xml version="1.0" standalone="no"?>
<!DOCTYPE svg PUBLIC "-//W3C//DTD SVG 20010904//EN"
 "http://www.w3.org/TR/2001/REC-SVG-20010904/DTD/svg10.dtd">
<svg version="1.0" xmlns="http://www.w3.org/2000/svg"
 width="601.000000pt" height="601.000000pt" viewBox="0 0 601.000000 601.000000"
 preserveAspectRatio="xMidYMid meet">
<metadata>
Created by potrace 1.14, written by Peter Selinger 2001-2017
</metadata>
<g transform="translate(0.000000,601.000000) scale(0.100000,-0.100000)"
fill="#000000" stroke="none">
<path d="M2892 6002 c-9 -7 -12 -142 -12 -634 l0 -626 -23 -5 c-12 -3 -124
-11 -249 -18 l-228 -12 0 -38 c0 -37 55 -471 66 -518 4 -21 2 -23 -18 -17
-133 36 -434 26 -582 -21 -102 -32 -239 -99 -320 -157 -186 -133 -330 -363
-402 -641 -25 -97 -28 -127 -28 -255 1 -96 6 -169 17 -216 106 -463 471 -823
1187 -1167 198 -95 412 -217 472 -270 l37 -32 80 -645 c96 -763 90 -720 105
-720 16 0 17 8 106 615 38 259 72 484 75 502 12 68 220 314 405 478 62 55 203
166 314 247 396 290 552 408 609 458 174 156 308 435 353 734 36 242 -26 510
-167 717 -115 170 -332 346 -502 407 -151 55 -349 76 -491 52 -33 -5 -62 -7
-65 -5 -2 3 10 107 28 231 18 124 31 227 29 229 -1 2 -50 12 -107 23 l-104 20
-38 -25 c-42 -27 -69 -25 -69 6 0 22 -26 31 -97 31 l-53 0 0 640 0 640 -157 0
c-87 0 -164 -4 -171 -8z m304 -304 c-4 -156 -11 -528 -16 -828 -5 -300 -14
-642 -21 -760 l-12 -215 -34 -42 c-37 -47 -37 -48 2 -33 l27 10 -7 -62 c-32
-331 -49 -485 -70 -642 -14 -102 -25 -190 -25 -198 -1 -9 -3 -9 -9 2 -25 45
-75 593 -101 1115 -12 231 -26 1894 -17 1919 6 14 26 16 148 16 l141 0 -6
-282z m-358 -1216 l-3 -218 -63 -130 c-103 -209 -218 -389 -232 -363 -11 19
-110 748 -113 829 l-2 65 60 7 c49 6 206 19 333 27 l23 1 -3 -218z m498 156
c-10 -76 -96 -502 -103 -508 -5 -5 -2 84 13 417 7 143 5 139 68 142 l29 1 -7
-52z m226 12 c29 -6 62 -13 74 -15 l20 -4 -28 -213 c-15 -117 -28 -214 -28
-215 0 -1 -17 -7 -37 -14 -41 -13 -139 -67 -188 -103 -16 -12 -35 -25 -41 -29
-9 -5 24 155 102 491 29 126 23 122 126 102z m-662 -983 l21 -337 -83 -162
c-86 -168 -166 -295 -183 -291 -11 3 -20 71 -61 451 -22 202 -25 270 -17 292
10 28 52 91 154 235 28 39 68 97 91 129 36 52 42 57 49 40 4 -10 17 -171 29
-357z m1055 234 c333 -88 569 -351 615 -685 26 -183 -35 -406 -168 -611 -106
-166 -247 -309 -530 -538 -262 -213 -466 -409 -597 -576 -26 -34 -50 -60 -52
-57 -3 3 35 284 57 421 6 33 51 341 100 685 50 344 93 635 95 648 5 21 11 22
86 22 49 0 90 5 107 14 30 16 78 63 71 70 -3 3 -22 1 -44 -4 -42 -10 -169 10
-189 30 -6 6 5 112 34 311 l44 302 146 -6 c101 -3 169 -11 225 -26z m-405 1
c0 -36 -92 -362 -154 -547 -136 -405 -349 -839 -597 -1218 -39 -60 -45 -65
-51 -45 -3 13 -21 149 -38 303 l-33 280 60 95 c33 52 97 158 141 234 45 77 84
133 86 125 3 -8 10 -52 16 -99 25 -205 37 -247 60 -224 11 11 41 198 75 464
14 113 32 228 40 255 16 58 114 337 121 344 8 8 207 49 242 50 24 1 32 -3 32
-17z m-1120 -56 l56 -18 22 -172 c12 -94 56 -432 97 -751 41 -319 98 -759 128
-977 l52 -397 -105 103 c-118 114 -176 158 -370 277 -245 151 -367 246 -525
411 -283 295 -397 578 -353 870 28 185 100 330 228 457 104 104 225 164 411
206 88 20 285 15 359 -9z m956 -1027 c-21 -190 -90 -641 -117 -764 -27 -128
-58 -213 -126 -350 -75 -150 -130 -231 -221 -322 l-76 -77 -7 34 c-4 19 -20
139 -35 265 l-28 230 104 145 c128 178 215 320 285 465 57 117 175 411 195
484 6 24 17 55 23 70 l11 26 4 -32 c2 -18 -4 -96 -12 -174z m-206 -1386 c-8
-59 -19 -100 -35 -124 -39 -61 -111 -210 -136 -284 -20 -59 -24 -90 -24 -192
0 -76 4 -126 11 -133 8 -8 13 7 16 57 3 37 13 91 23 118 27 77 77 181 81 169
4 -10 -122 -874 -129 -880 -3 -3 -34 243 -86 681 l-28 230 80 100 c88 110 156
209 202 297 16 31 31 55 33 53 2 -2 -1 -44 -8 -92z"/>
</g>
</svg>
