<svg width="60" height="35" viewBox="0 0 60 35" fill="none" xmlns="http://www.w3.org/2000/svg">
<path d="M20.2458 1.27403C16.6683 2.31691 14.6151 4.04612 13.3104 6.88353C12.2464 9.16099 11.9055 11.4241 12.2999 13.566C13.1633 18.2432 17.1363 22.103 24.5398 25.4553C27.0338 26.5821 29.2485 27.9762 30.5411 29.246L31.1671 29.8511L30.9365 29.4471C30.5821 28.8185 29.881 27.8048 29.3797 27.2035C27.9567 25.5038 26.4714 24.2931 24.3403 23.0792C19.3886 20.2537 16.5303 16.7646 15.5969 13.566C15.3035 12.0607 15.3038 11.2108 15.5969 9.70425C16.0798 8.10605 16.5004 7.31309 17.5927 6.13283C18.8934 4.76593 20.1535 4.38158 21.5138 4.03166C22.2659 3.84815 22.4769 3.81955 23.3185 3.779C24.2651 3.77373 24.4614 3.79384 25.1516 3.92885C26.5714 4.29674 27.9643 5.04597 29.2667 6.13283C31.9197 8.35074 34.4178 9.85033 36.0868 10.2259C36.6271 10.3389 37.2883 10.334 37.7044 10.2072C38.0051 10.122 38.4677 9.74262 38.5922 9.4953C38.6658 9.36369 38.6503 9.36416 38.3818 9.48647C37.9596 9.66672 37.1955 9.6138 36.4713 9.34658C34.8967 8.75507 33.1493 7.3773 30.8139 4.86815C29.2113 3.14349 28.096 2.31734 26.4077 1.57707C24.6247 0.794006 21.8643 1.03464 20.2458 1.27403Z" fill="#FB0071"/>
<path d="M14.6677 13.8509C20.718 14.063 24.3827 14.3475 29.1164 14.973C30.1686 15.112 31.3315 15.3238 31.3315 15.3238C31.3315 15.3238 30.4013 15.4655 29.7666 15.5445C24.1019 16.2502 20.8871 16.3958 9.87417 16.4448C5.99171 16.4728 4.00063 16.4584 0.492039 16.396C0.422475 16.3876 0.401893 16.3659 0.395213 16.2998C0.321832 15.3617 0.321182 14.7965 0.395571 13.8567C0.403441 13.7906 0.4286 13.7705 0.503439 13.7672C1.59073 13.7627 14.6677 13.8509 14.6677 13.8509Z" fill="white"/>
<path d="M40.5948 13.2807C41.7096 13.5904 43.9202 14.5418 44.9138 15.2055C45.5248 15.6135 46.6383 16.6249 46.9381 17.0143C45.7779 17.2111 41.5463 17.7887 41.5174 17.6981C41.3363 17.5745 40.9709 17.3174 40.5852 17.0415C38.9243 15.8535 37.1932 14.8148 35.6611 14.0873C34.0359 13.3155 31.8076 12.4445 30.5538 12.0909C30.2115 11.9944 29.8212 11.8214 29.8222 11.7727C29.9219 11.5782 40.0333 13.0897 40.5948 13.2807Z" fill="white"/>
<path d="M51.2919 14.6245C54.9826 15.1608 58.1406 15.6363 58.31 15.6813C55.7753 15.9966 54.1113 16.1925 52.4858 16.384L52.4848 16.3841L52.4831 16.3843L52.4828 16.3843L52.4825 16.3844C51.4287 16.5085 50.3909 16.6307 49.1423 16.7823L48.4484 16.2259C47.4335 15.412 46.7001 14.9227 45.4294 14.2119C44.8766 13.9026 44.4596 13.6496 44.5029 13.6496C44.5462 13.6496 47.6013 14.0884 51.2919 14.6245Z" fill="white"/>
<path d="M17.0948 12.9222C19.0147 13.3015 19.2356 13.3544 19.1687 13.4191C19.1138 13.4721 13.8034 13.274 13.4846 13.207C13.2876 13.1657 13.2782 13.1078 13.2782 12.697L13.3084 12.3078C13.3214 12.2378 13.4097 12.2441 13.5098 12.2592L14.3007 12.3955C14.8742 12.495 16.1315 12.7319 17.0948 12.9222Z" fill="white"/>
<path d="M31.9108 17.9218C31.1167 17.4411 30.0355 16.8129 29.5082 16.5259C28.9808 16.2388 28.5878 15.9809 28.6349 15.9528C28.682 15.9247 29.4438 15.8088 30.3278 15.6953C31.0001 15.609 31.6031 15.5117 31.8755 15.4487C32.2314 15.3498 32.2223 15.2986 31.8755 15.2139C30.7587 14.9761 29.7206 14.8048 26.8006 14.3995C26.4752 14.3482 26.2017 14.307 25.9634 14.2712C24.8721 14.107 24.5167 14.0536 23.2859 13.6372C21.0966 12.9794 19.736 12.6143 16.5718 11.8561C15.4985 11.6246 14.5371 11.4042 13.9956 11.2681C13.6704 11.1769 13.5534 11.104 13.4839 10.9257C13.4524 10.6342 13.4727 10.3859 13.6484 9.63238C13.6924 9.42704 13.8037 9.38311 14.1466 9.41601C15.7736 9.57403 22.1076 10.4943 23.1255 10.7202C26.6723 11.6361 30.7529 13.1571 33.8086 14.7249C36.0363 15.868 38.9258 17.5356 39.4152 17.9506C36.6182 18.3398 33.3453 18.7289 33.1995 18.702C33.0536 18.6751 31.9108 17.9218 31.9108 17.9218Z" fill="white"/>
<path fill-rule="evenodd" clip-rule="evenodd" d="M13.4414 9.02961C13.4061 9.06367 13.2968 9.50429 13.1985 10.0086L13.0391 10.9458L13.2395 11.3036C13.5249 11.7943 13.5171 11.978 13.2077 12.053C13.0155 12.0996 12.956 12.1773 12.956 12.3818C12.9437 12.5397 12.9177 12.858 12.893 13.094L12.83 13.5383C12.8214 13.55 11.3519 13.5349 9.41492 13.5151L9.41478 13.5151C5.96148 13.4797 1.02233 13.429 0.226265 13.4879C0.152233 13.4946 0.128037 13.5144 0.108633 13.5726C-0.0359713 14.6827 -0.035522 15.3228 0.105861 16.5036C0.114055 16.5897 0.138658 16.6157 0.209387 16.6322C0.734139 16.6752 3.44518 16.7291 6.57071 16.7439L12.8553 16.7736L12.8568 17.0357C12.8595 17.4936 13.0605 20.2785 13.1535 21.2584C13.2046 21.576 13.349 21.6152 13.6935 21.5705C14.3995 21.4956 16.0629 21.2887 19.9035 20.8053C21.371 20.6206 25.2223 20.1382 28.4619 19.7332C35.2256 18.8876 40.9018 18.1629 44.5216 17.6828C45.9061 17.4992 49.916 16.9958 53.4325 16.5642C56.949 16.1326 59.8765 15.7129 59.909 15.6998C60.0337 15.667 60.0269 15.6558 59.909 15.6245C59.8005 15.5957 58.1554 15.2913 50.0366 14.1424C46.2431 13.6057 42.2058 13.0322 41.0982 12.8728C39.9907 12.7134 34.2817 11.9029 28.4116 11.0719C22.5415 10.2408 17.0137 9.45535 16.1277 9.32644C13.8771 8.99887 13.5146 8.95888 13.4414 9.02961ZM29.5082 16.5259C30.0355 16.8129 31.1167 17.4411 31.9108 17.9218C31.9108 17.9218 33.0536 18.6751 33.1995 18.702C33.3453 18.7289 36.6182 18.3398 39.4152 17.9506C38.9258 17.5356 36.0363 15.868 33.8086 14.7249C30.7529 13.1571 26.6723 11.6361 23.1255 10.7202C22.1076 10.4943 15.7736 9.57403 14.1466 9.41601C13.8037 9.38311 13.6924 9.42704 13.6484 9.63238C13.4727 10.3859 13.4524 10.6342 13.4839 10.9257C13.5534 11.104 13.6704 11.1769 13.9956 11.2681C14.5371 11.4042 15.4985 11.6246 16.5718 11.8561C19.736 12.6143 21.0966 12.9794 23.2859 13.6372C24.5167 14.0536 24.8721 14.107 25.9634 14.2712C26.2017 14.307 26.4752 14.3482 26.8006 14.3995C29.7206 14.8048 30.7587 14.9761 31.8755 15.2139C32.2223 15.2986 32.2314 15.3498 31.8755 15.4487C31.6031 15.5117 31.0001 15.609 30.3278 15.6953C29.4438 15.8088 28.682 15.9247 28.6349 15.9528C28.5878 15.9809 28.9808 16.2388 29.5082 16.5259ZM44.9138 15.2055C43.9202 14.5418 41.7096 13.5904 40.5948 13.2807C40.0333 13.0897 29.9219 11.5782 29.8222 11.7727C29.8212 11.8214 30.2115 11.9944 30.5538 12.0909C31.8076 12.4445 34.0359 13.3155 35.6611 14.0873C37.1932 14.8148 38.9243 15.8535 40.5852 17.0415C40.9709 17.3174 41.3363 17.5745 41.5174 17.6981C41.5463 17.7887 45.7779 17.2111 46.9381 17.0143C46.6383 16.6249 45.5248 15.6135 44.9138 15.2055ZM19.1687 13.4191C19.2356 13.3544 19.0147 13.3015 17.0948 12.9222C16.1315 12.7319 14.8742 12.495 14.3007 12.3955L13.5098 12.2592C13.4097 12.2441 13.3214 12.2378 13.3084 12.3078L13.2782 12.697C13.2782 13.1078 13.2876 13.1657 13.4846 13.207C13.8034 13.274 19.1138 13.4721 19.1687 13.4191ZM29.1164 14.973C24.3827 14.3475 20.718 14.063 14.6677 13.8509C14.6677 13.8509 1.59073 13.7627 0.503439 13.7672C0.4286 13.7705 0.403441 13.7906 0.395571 13.8567C0.321182 14.7965 0.321832 15.3617 0.395213 16.2998C0.401893 16.3659 0.422475 16.3876 0.492039 16.396C4.00063 16.4584 5.99171 16.4728 9.87417 16.4448C20.8871 16.3958 24.1019 16.2502 29.7666 15.5445C30.4013 15.4655 31.3315 15.3238 31.3315 15.3238C31.3315 15.3238 30.1686 15.112 29.1164 14.973ZM58.31 15.6813C58.1406 15.6363 54.9826 15.1608 51.2919 14.6245C47.6013 14.0884 44.5462 13.6496 44.5029 13.6496C44.4596 13.6496 44.8766 13.9026 45.4294 14.2119C46.7001 14.9227 47.4335 15.412 48.4484 16.2259L49.1423 16.7823C50.3909 16.6307 51.4287 16.5085 52.4825 16.3844L52.4828 16.3843L52.4831 16.3843L52.4848 16.3841L52.4858 16.384C54.1113 16.1925 55.7753 15.9966 58.31 15.6813ZM31.362 18.9241C31.3147 18.6869 30.1874 18.0004 28.4429 17.1467C26.9053 16.3943 26.845 16.374 26.1774 16.3862C24.9947 16.4079 19.9624 16.7627 19.7775 16.8375C19.6407 16.8928 20.0148 17.1959 21.4505 18.1926C22.4677 18.8987 23.4835 19.5689 23.7081 19.682L24.082 19.8477L24.4851 19.8026L24.4853 19.8026C27.0372 19.5169 28.6387 19.3376 31.362 18.9241ZM13.6105 21.1612C13.421 19.6077 13.3465 18.4466 13.3084 16.8804C15.5739 16.9291 15.9263 16.9544 17.3359 17.2696C19.2713 17.7024 20.3122 18.4378 22.3703 19.9451C22.4801 20.0243 22.4712 20.0544 22.3703 20.091C18.3842 20.6336 16.4393 20.8858 13.6105 21.1612Z" fill="black"/>
<path fill-rule="evenodd" clip-rule="evenodd" d="M40.5948 13.2807C41.7096 13.5904 43.9202 14.5418 44.9138 15.2055C45.5248 15.6135 46.6383 16.6249 46.9381 17.0143C45.7779 17.2111 41.5463 17.7887 41.5174 17.6981C41.3363 17.5745 40.9709 17.3174 40.5852 17.0415C38.9243 15.8535 37.1932 14.8148 35.6611 14.0873C34.0359 13.3155 31.8076 12.4445 30.5538 12.0909C30.2115 11.9944 29.8212 11.8214 29.8222 11.7727C29.9219 11.5782 40.0333 13.0897 40.5948 13.2807ZM17.0948 12.9222C19.0147 13.3015 19.2356 13.3544 19.1687 13.4191C19.1138 13.4721 13.8034 13.274 13.4846 13.207C13.2876 13.1657 13.2782 13.1078 13.2782 12.697L13.3084 12.3078C13.3214 12.2378 13.4097 12.2441 13.5098 12.2592L14.3007 12.3955C14.8742 12.495 16.1315 12.7319 17.0948 12.9222ZM14.6677 13.8509C20.718 14.063 24.3827 14.3475 29.1164 14.973C30.1686 15.112 31.3315 15.3238 31.3315 15.3238C31.3315 15.3238 30.4013 15.4655 29.7666 15.5445C24.1019 16.2502 20.8871 16.3958 9.87417 16.4448C5.99171 16.4728 4.00063 16.4584 0.492039 16.396C0.422475 16.3876 0.401893 16.3659 0.395213 16.2998C0.321832 15.3617 0.321182 14.7965 0.395571 13.8567C0.403441 13.7906 0.4286 13.7705 0.503439 13.7672C1.59073 13.7627 14.6677 13.8509 14.6677 13.8509ZM51.2919 14.6245C54.9826 15.1608 58.1406 15.6363 58.31 15.6813C55.7753 15.9966 54.1113 16.1925 52.4858 16.384L52.4848 16.3841L52.4831 16.3843L52.4828 16.3843L52.4825 16.3844C51.4287 16.5085 50.3909 16.6307 49.1423 16.7823L48.4484 16.2259C47.4335 15.412 46.7001 14.9227 45.4294 14.2119C44.8766 13.9026 44.4596 13.6496 44.5029 13.6496C44.5462 13.6496 47.6013 14.0884 51.2919 14.6245ZM28.4429 17.1467C30.1874 18.0004 31.3147 18.6869 31.362 18.9241C28.6387 19.3376 27.0372 19.5169 24.4853 19.8026L24.4851 19.8026L24.082 19.8477L23.7081 19.682C23.4835 19.5689 22.4677 18.8987 21.4505 18.1926C20.0148 17.1959 19.6407 16.8928 19.7775 16.8375C19.9624 16.7627 24.9947 16.4079 26.1774 16.3862C26.845 16.374 26.9053 16.3943 28.4429 17.1467ZM31.9108 17.9218C31.1167 17.4411 30.0355 16.8129 29.5082 16.5259C28.9808 16.2388 28.5878 15.9809 28.6349 15.9528C28.682 15.9247 29.4438 15.8088 30.3278 15.6953C31.0001 15.609 31.6031 15.5117 31.8755 15.4487C32.2314 15.3498 32.2223 15.2986 31.8755 15.2139C30.7587 14.9761 29.7206 14.8048 26.8006 14.3995C26.4752 14.3482 26.2017 14.307 25.9634 14.2712C24.8721 14.107 24.5167 14.0536 23.2859 13.6372C21.0966 12.9794 19.736 12.6143 16.5718 11.8561C15.4985 11.6246 14.5371 11.4042 13.9956 11.2681C13.6704 11.1769 13.5534 11.104 13.4839 10.9257C13.4524 10.6342 13.4727 10.3859 13.6484 9.63238C13.6924 9.42704 13.8037 9.38311 14.1466 9.41601C15.7736 9.57403 22.1076 10.4943 23.1255 10.7202C26.6723 11.6361 30.7529 13.1571 33.8086 14.7249C36.0363 15.868 38.9258 17.5356 39.4152 17.9506C36.6182 18.3398 33.3453 18.7289 33.1995 18.702C33.0536 18.6751 31.9108 17.9218 31.9108 17.9218Z" fill="white"/>
<path d="M13.3084 16.8804C13.3465 18.4466 13.421 19.6077 13.6105 21.1612C16.4393 20.8858 18.3842 20.6336 22.3703 20.091C22.4712 20.0544 22.4801 20.0243 22.3703 19.9451C20.3122 18.4378 19.2713 17.7024 17.3359 17.2696C15.9263 16.9544 15.5739 16.9291 13.3084 16.8804Z" fill="white"/>
<path d="M40.0462 0.319412C39.5116 0.251685 37.3113 0.362346 36.2844 0.943487C35.0124 1.56051 33.3195 2.8905 32.3135 4.04742L31.9981 4.40709L32.5986 4.2062C37.5634 2.51814 41.6294 2.91986 44.36 5.37896C45.0807 6.02683 45.5102 6.56937 45.9883 7.42248C47.3083 9.80262 47.3215 12.192 46.0215 14.88C44.9987 16.9811 43.2778 18.9056 40.3925 21.1546C39.4131 21.9226 38.2673 22.8402 37.8586 23.2027C34.1488 26.4433 31.9391 29.3949 31.2002 32.1115C31.0399 32.7024 31.0165 32.9466 31.0419 33.7526C31.0514 34.3003 31.1057 34.7857 31.1557 34.8908C31.2467 35.063 31.2537 35.04 31.2427 34.6902C31.2008 32.3778 33.745 28.6855 37.6331 25.4243C38.4517 24.7373 38.3453 24.8166 42.7053 21.7161C46.0838 19.3151 46.682 18.7947 47.5614 17.5731C48.5376 16.2116 49.3297 14.1935 49.6863 12.1811C49.8187 11.4464 49.8385 11.0881 49.7978 10.0467C49.7463 8.66312 49.5846 7.97545 49.0485 6.7664C48.5358 5.21764 46.8667 3.14501 45.2201 2.06502C43.6426 1.01412 42.6003 0.574348 40.0462 0.319412Z" fill="#FB0071"/>
</svg>
